<svg id="Layer_1" height="512" viewBox="0 0 512 512" width="512" xmlns="http://www.w3.org/2000/svg" data-name="Layer 1"><path d="m200.955 381.034c5.884 2.884 11.148 4.333 15.526 4.333a13.094 13.094 0 0 0 8.834-2.924 5.933 5.933 0 0 0 .819-.865 4.928 4.928 0 0 1 2.727-1.406c1.946-.22 4.118 1.171 5.591 2.377 5.21 4.266 14.119 3.552 25.09-2.012 23.608-11.973 48.111-41.551 46.121-78.2-.718-13.223-5.239-30.876-22.7-39.891-16.452-8.493-36.63-5.56-47.752-1.632-.038-.871-.092-1.72-.155-2.556 12.757-3.254 30.046-12.971 30.026-33.877a6.794 6.794 0 0 0 -7.335-6.743c-15.891 1.283-25.342 7.3-30.639 13.973-4.165-6.695-8.429-9.439-8.794-9.665l-6.314 10.208-.09-.056c.467.313 10.333 7.213 11.311 29.084-11.218-3.628-32.023-6.851-48.13 2.128-16.189 9.025-20.417 26.206-21.114 39.03-.964 17.764 4.2 35.232 14.922 50.518 8.476 12.077 20.16 22.342 32.056 28.176zm51.264-150.534c-2.929 9.679-12.649 13.968-18.92 15.766.433-3.184 3.06-12.517 18.92-15.766zm-86.257 72.49c.775-14.267 5.812-24.092 14.974-29.2 5.731-3.194 12.6-4.336 19.21-4.336 10.2 0 19.775 2.718 23.582 4.8a11.215 11.215 0 0 0 4.5 1.313 6.071 6.071 0 0 0 .638.068c.106.005.211.008.315.008a5.958 5.958 0 0 0 1.178-.118 11.56 11.56 0 0 0 4.989-1.7c4.714-2.977 26.339-8.851 42.108-.709 9.968 5.146 15.426 15.2 16.223 29.878 1.551 28.571-15.745 51.059-32.45 62.578-10.589 7.3-17.827 8.14-19.288 7.605-4.71-3.821-9.57-5.476-14.436-4.924a16.8 16.8 0 0 0 -10.037 5.045c-1.754.458-8.681-.486-19.056-7.673-16.702-11.573-34-34.103-32.45-62.635z"/><path d="m192.654 336.6a6 6 0 0 0 1.1-8.414c-7.255-9.426-5.559-21.716-5.519-21.991a6 6 0 0 0 -11.853-1.873c-.113.709-2.656 17.516 7.862 31.182a6 6 0 0 0 8.414 1.1z"/><path d="m40.584 362.731a6 6 0 0 0 12 0v-18.687a6 6 0 0 0 -12 0z"/><path d="m46.584 322.836a6 6 0 0 0 6-6v-88.522a6 6 0 0 0 -12 0v88.522a6 6 0 0 0 6 6z"/><path d="m427.206 102.232c-41.241 0-74.794 41.276-74.794 92.011 0 35.19 15.9 66.767 41.485 82.409a12.44 12.44 0 0 1 5.866 10.577v182.071a27.443 27.443 0 0 0 54.886 0v-182.071a12.441 12.441 0 0 1 5.865-10.577c25.586-15.642 41.486-47.219 41.486-82.409 0-50.735-33.553-92.011-74.794-92.011zm27.049 164.182a24.516 24.516 0 0 0 -11.606 20.815v182.071a15.443 15.443 0 0 1 -30.886 0v-182.071a24.515 24.515 0 0 0 -11.607-20.815c-21.714-13.273-35.744-41.6-35.744-72.171 0-44.118 28.169-80.011 62.794-80.011s62.794 35.893 62.794 80.011c0 30.569-14.03 58.898-35.745 72.171z"/><path d="m385.9 207.894a6 6 0 0 0 -11.861 1.822 85.5 85.5 0 0 0 3.35 13.949 6 6 0 0 0 11.386-3.786 73.523 73.523 0 0 1 -2.875-11.985z"/><path d="m395.105 147.74a6 6 0 0 0 -8.348 1.515c-8.048 11.615-12.9 26.608-13.655 42.219a6 6 0 0 0 5.7 6.284c.1 0 .2.007.3.007a6 6 0 0 0 5.988-5.709c.65-13.4 4.746-26.172 11.532-35.967a6 6 0 0 0 -1.517-8.349z"/><path d="m311.2 81.365a15.136 15.136 0 0 0 10.531-14.4v-36.573a15.111 15.111 0 0 0 -15.113-15.112h-262.845a15.12 15.12 0 0 0 -15.12 15.12v36.569a15.134 15.134 0 0 0 10.815 14.479l-6.975 11.883a163.471 163.471 0 0 0 -22.493 82.752v8.371a6 6 0 0 0 12 0v-8.371a151.623 151.623 0 0 1 20.847-76.683l10.165-17.319h244.728l10.184 17.552a151.516 151.516 0 0 1 20.46 76.033v15.913h-193.34a26.223 26.223 0 0 0 -26.2 26.184v166.383a26.2 26.2 0 0 0 26.2 26.2h193.34v54.406a17.646 17.646 0 0 1 -17.638 17.615h-271.109a17.646 17.646 0 0 1 -17.637-17.612v-228.3a6 6 0 0 0 -12 0v228.3a29.659 29.659 0 0 0 29.637 29.615h271.109a29.66 29.66 0 0 0 29.638-29.615v-289.1a163.463 163.463 0 0 0 -22.074-82.032zm-1.469-14.4a3.119 3.119 0 0 1 -3.119 3.112h-262.839a3.12 3.12 0 0 1 -3.12-3.112v-36.573a3.12 3.12 0 0 1 3.12-3.112h262.837a3.119 3.119 0 0 1 3.119 3.112zm18.655 331.38h-193.342a14.21 14.21 0 0 1 -14.2-14.185v-166.4a14.209 14.209 0 0 1 14.2-14.184h193.34z"/></svg>