<svg id="Layer_1" enable-background="new 0 0 512 512" height="512" viewBox="0 0 512 512" width="512" xmlns="http://www.w3.org/2000/svg"><path d="m343.9 74.7c0-4.4 3.6-8 8-8 62.5 0 113.3 50.8 113.3 113.3 0 4.4-3.6 8-8 8s-8-3.6-8-8c0-53.7-43.6-97.3-97.3-97.3-4.5 0-8-3.6-8-8zm168.1 220.5c0 4.4-3.6 7.9-8 7.9 0 0 0 0-.1 0l-58.4-.5c-39.6 47.8-91.7 95.8-135.3 135.9-19.2 17.7-35.8 33-48.6 45.8-1.5 1.5-3.5 2.3-5.7 2.3-2.1 0-4.2-.8-5.7-2.3-12.8-12.8-29.4-28.1-48.7-45.9-44.7-41.2-98.3-90.5-138.2-139.5h-55.3c-4.4 0-8-3.6-8-8s3.6-8 8-8h42.9c-27.2-36.1-45.5-71.6-45.5-102.9 0-85.3 69.4-154.8 154.8-154.8 34.8 0 68.6 11.8 95.8 33.3 27.2-21.5 61-33.3 95.9-33.3 85.3 0 154.8 69.4 154.8 154.8 0 32.3-19.6 69.2-48.3 106.7l45.8.4c4.3 0 7.8 3.7 7.8 8.1zm-440.7-12.1h101.3l37.3-160.6c.8-3.6 4.1-6.2 7.8-6.2 3.7 0 6.9 2.6 7.8 6.2l47.3 201.2 30.2-103c.9-3.2 3.8-5.5 7.1-5.7s6.5 1.6 7.9 4.6l30.4 66.3 89.5.7c30.9-38.3 52.7-75.8 52.7-106.6 0-76.5-62.2-138.8-138.7-138.8-33.3 0-65.5 12-90.6 33.7-3 2.6-7.5 2.6-10.5 0-25.2-21.7-57.3-33.7-90.6-33.7-76.6.1-138.8 62.3-138.8 138.8 0 29.9 20.5 66 49.9 103.1zm353.3 19.4-81.4-.6c-3.1 0-5.9-1.8-7.2-4.7l-23.6-51.4-32.7 111.5c-1 3.4-4.1 5.8-7.7 5.8-.1 0-.1 0-.2 0-3.6-.1-6.7-2.6-7.6-6.2l-46.4-197.4-31 133.4c-.8 3.6-4.1 6.2-7.8 6.2h-94.5c38.9 45.6 88.6 91.4 128 127.7 16.7 15.4 31.4 28.9 43.5 40.7 12.1-11.8 26.8-25.3 43.4-40.7 38.4-35.3 86.7-79.8 125.2-124.3z"/></svg>