<?xml version="1.0"?>
<svg xmlns="http://www.w3.org/2000/svg" id="Icons" viewBox="0 0 60 60" width="512" height="512"><path d="M58,43H56V41a3,3,0,0,0-3-3H51a2.966,2.966,0,0,0-1,.184V35a3,3,0,0,0-3-3H45a3,3,0,0,0-3,3v8H18V35a3,3,0,0,0-3-3H13a3,3,0,0,0-3,3v3.184A2.966,2.966,0,0,0,9,38H7a3,3,0,0,0-3,3v2H2a2,2,0,0,0-2,2v2a2,2,0,0,0,2,2H4v2a3,3,0,0,0,3,3H9a2.966,2.966,0,0,0,1-.184V57a3,3,0,0,0,3,3h2a3,3,0,0,0,3-3V49H42v8a3,3,0,0,0,3,3h2a3,3,0,0,0,3-3V53.816A2.966,2.966,0,0,0,51,54h2a3,3,0,0,0,3-3V49h2a2,2,0,0,0,2-2V45A2,2,0,0,0,58,43Zm-7-3h2a1,1,0,0,1,1,1v2.026A4.948,4.948,0,0,0,51,42H50V41A1,1,0,0,1,51,40Zm-6-6h2a1,1,0,0,1,1,1v2.026A4.948,4.948,0,0,0,45,36H44V35A1,1,0,0,1,45,34ZM13,34h2a1,1,0,0,1,1,1v2.026A4.948,4.948,0,0,0,13,36H12V35A1,1,0,0,1,13,34ZM7,40H9a1,1,0,0,1,1,1v2.026A4.948,4.948,0,0,0,7,42H6V41A1,1,0,0,1,7,40ZM2,47V45H4v2Zm7,5H7a1,1,0,0,1-1-1V44H7a3,3,0,0,1,3,3v4A1,1,0,0,1,9,52Zm7,5a1,1,0,0,1-1,1H13a1,1,0,0,1-1-1V38h1a3,3,0,0,1,3,3V57Zm2-10V45H42v2ZM48,57a1,1,0,0,1-1,1H45a1,1,0,0,1-1-1V38h1a3,3,0,0,1,3,3V57Zm6-6a1,1,0,0,1-1,1H51a1,1,0,0,1-1-1V44h1a3,3,0,0,1,3,3v4Zm4-4H56V45h2Z"/><path d="M28.16,39.232A2.57,2.57,0,0,0,30,40h0a2.57,2.57,0,0,0,1.841-.769l18.7-18.91a11.981,11.981,0,0,0,0-16.829A11.659,11.659,0,0,0,42.219.005h-.008a11.68,11.68,0,0,0-8.345,3.487L30,7.4l-3.865-3.9a11.709,11.709,0,0,0-16.682,0,11.981,11.981,0,0,0,0,16.828ZM10.876,4.9a9.707,9.707,0,0,1,13.839,0l4.012,4.053a1.836,1.836,0,0,0,2.549,0L35.287,4.9a9.694,9.694,0,0,1,6.925-2.894h.006a9.674,9.674,0,0,1,6.911,2.9,9.982,9.982,0,0,1,0,14.013L30.421,37.825A.585.585,0,0,1,30,38h0a.585.585,0,0,1-.42-.175L10.875,18.912A9.975,9.975,0,0,1,10.876,4.9Z"/><path d="M20,21h4.661a1.5,1.5,0,0,0,1.394-.943l.915-2.289,1.561,4.163a1.5,1.5,0,0,0,1.405.974H30a1.5,1.5,0,0,0,1.384-1.088l.876-3.069.713,1.425A1.491,1.491,0,0,0,34.309,21H40a1,1,0,0,0,0-2H34.617L33.47,16.7a1.5,1.5,0,0,0-2.785.258l-.813,2.849L28.39,15.858A1.49,1.49,0,0,0,27,14.884h-.018a1.49,1.49,0,0,0-1.392.943L24.323,19H20a1,1,0,0,0,0,2Z"/></svg>
