<svg id="Capa_1" enable-background="new 0 0 512 512" height="512" viewBox="0 0 512 512" width="512" xmlns="http://www.w3.org/2000/svg"><g><path d="m491.801 354.57-39.249-18.13 2.02-8.48c33.729-14.37 57.428-47.87 57.428-86.82-.03-23.6-8.72-46.19-24.469-63.62-2.78-3.08-7.52-3.32-10.59-.54-3.08 2.78-3.32 7.52-.54 10.59 13.26 14.68 20.57 33.71 20.6 53.57 0 43.73-35.529 79.31-79.208 79.31s-79.208-35.58-79.208-79.31c0-43.28 35.569-78.86 79.288-79.3 12.11-.13 23.759 2.48 34.589 7.75 3.73 1.82 8.21.27 10.03-3.46 1.81-3.72.26-8.21-3.46-10.02-12.94-6.3-26.889-9.43-41.319-9.27-11.99.12-23.629 2.45-34.449 6.74-5.967-4.828-13.01-9.519-21.193-13.538 3.448-4.363 6.639-9.16 9.529-14.362l28.663-51.714c2.106-3.815 2.243-7.988.376-11.45-1.87-3.466-5.44-5.646-9.834-5.984l-58.901-4.228c-22.336-1.608-38.558 3.426-49.984 10.048v-3.759c0-17.42-14.16-31.592-31.566-31.592s-31.566 14.172-31.566 31.592v71.809c-27.22-4.641-51.981-2.397-73.86 6.739-23.159 9.67-42.749 27.3-57.059 51.18-.06-.03-.11-.06-.16-.09-3.82-2.17-7.37-2.57-10.55-1.19-4.63 2.01-5.96 6.57-6.82 10.16-8.35 19.08-13.96 42.56-17.14 71.76l-45.577 21.059c-5.61 2.6-8.73 9.12-7.26 15.13l14.9 62.39c.8 3.41 2.99 6.23 6.02 7.73 1.53.76 3.2 1.14 4.9 1.14 1.63 0 3.29-.36 4.86-1.07l38.049-17.59c8.72 34.29 24.429 64.96 45.489 87.07 25.049 26.28 57.018 40.18 92.457 40.18h86.688c32.819 0 61.759-11.39 86.018-33.85 11.43-10.59 21.54-23.54 30.049-38.34l58.588 27.05c1.57.73 3.23 1.1 4.89 1.1s3.32-.37 4.84-1.12c3.05-1.48 5.26-4.31 6.05-7.7l14.89-62.41c1.49-5.99-1.73-12.66-7.249-15.16zm-209.881-273.958c8.926-7.518 24.225-15.126 48.909-13.347l53.856 3.866-26.201 47.271c-3.276 5.895-6.97 11.153-11.004 15.709-17.568-5.757-39.237-8.154-65.561-3.689v-49.81zm-48.132-22.02c0-9.149 7.431-16.592 16.566-16.592s16.566 7.443 16.566 16.592v75.007c-3.334.845-16.044 4.731-16.554 4.851-.52-.12-13.219-4.01-16.578-4.862zm5.769 92.188c1.4.43 2.53.8 3.49 1.11 6.5 2.11 8.15 2.11 14.64 0 .94-.31 2.08-.68 3.45-1.11 42.269-12.95 79.068-9.35 107.188 10.31-6.14 3.81-11.9 8.32-17.12 13.54-17.809 17.75-27.619 41.37-27.619 66.51 0 10.3 1.66 20.22 4.72 29.51-21.86-2.96-43.579-7.12-64.728-12.43-.06-.02-.11-.03-.17-.04-54.959-12.46-108.187-32.95-162.436-62.55 28.637-47.6 77.556-63.55 138.585-44.85zm-210.715 209.05-13.57-56.83 41.849-19.33c1.3 1.29 2.77 2.37 4.25 3.32-.58 18.9.96 37.71 4.39 55.77zm264.883 110.17h-86.688c-31.679 0-59.129-11.95-81.598-35.53-21.069-22.11-36.309-53.72-43.859-88.95-3.46-16.13-5.29-33.02-5.33-50.1 23.249 12.68 47.629 24.07 72.628 33.92 3.85 1.52 8.21-.38 9.73-4.23 1.51-3.85-.38-8.21-4.23-9.73-28.209-11.12-55.609-24.23-81.448-38.98-.01-.01-.02-.01-.03-.02-.02-.01-.05-.03-.08-.04l-.46-.26c-1.68-.96-3.95-2.25-4.63-2.96 0-.19.03-.57.18-1.2.07-.3.12-.6.15-.91.33-3.08.69-6.08 1.08-9.02 3.11-23.6 8-42.85 14.87-58.61.44.25.88.5 1.33.74.57.33 1.14.64 1.72.96.03.02.06.04.1.06.01.01.03.01.04.02 21.27 11.872 42.381 22.369 63.489 31.563l-4.232 17.75c-.96 4.029 1.527 8.075 5.557 9.035.585.14 1.17.206 1.745.206 3.393 0 6.469-2.317 7.29-5.762l3.653-15.32c29.133 11.891 58.329 21.319 88.002 28.446l-4.286 17.925c-.964 4.029 1.521 8.075 5.55 9.039.586.14 1.173.208 1.75.208 3.392 0 6.466-2.315 7.288-5.758l4.288-17.936c22.255 5.287 45.057 9.364 67.961 12.113 1.67 3.02 3.48 5.88 5.43 8.59 17.06 24.29 45.259 40.19 77.108 40.19 6.84 0 13.51-.74 19.929-2.13.05-.01.11-.02.16-.03l-1.28 5.33c-.06.21-.11.42-.15.63l-4.72 19.76c-.15.6-.29.96-.37 1.13-.94.32-3.51.44-5.43.53l-.63.03c-79.638 3.94-162.796-7.88-240.484-34.18-3.93-1.33-8.19.78-9.51 4.7-1.33 3.93.77 8.18 4.7 9.51 69.458 23.52 143.217 35.71 215.125 35.71 5.07 0 10.14-.06 15.19-.18-12.82 34.461-45.269 93.741-116.598 93.741zm176.866-45.64-53.799-24.85c3.61-7.57 6.84-15.54 9.66-23.85l.18-.01c7.06-.33 16.72-.78 19.68-13.15l2.68-11.18 35.159 16.24z"/><path d="m460.417 205.462c-3.112-2.737-7.848-2.435-10.585.676l-48.226 54.801-16.907-13.169c-3.268-2.545-7.98-1.959-10.525 1.308-2.545 3.268-1.96 7.98 1.309 10.526l22.479 17.509c1.365 1.064 2.99 1.583 4.604 1.583 2.086 0 4.157-.867 5.634-2.545l52.892-60.103c2.737-3.11 2.435-7.849-.675-10.586z"/></g></svg>