<svg height="512" viewBox="0 0 48 48" width="512" xmlns="http://www.w3.org/2000/svg"><g id="Line"><path d="m45.707 8.707c.245-.245.59-1.202-.391-1.656l-2.525-.842-.843-2.526c-.109-.329-.745-1.07-1.655-.391l-3.112 3.112c-3.826-2.874-8.366-4.404-13.181-4.404-12.131 0-22 9.869-22 22s9.869 22 22 22 22-9.869 22-22c0-4.3-1.245-8.431-3.58-12.006zm-6.121 3.293h-1.424l4.089-3.862.897.299zm-14.227 9.341c-1.359-.749-4.218-.264-4.359 2.659-.08 1.652 1.346 3.015 3 3 3.12-.028 3.289-3.324 2.739-4.212l3.709-3.503c.971 1.324 1.552 2.951 1.552 4.715 0 4.411-3.589 8-8 8s-8-3.589-8-8 3.589-8 8-8c1.928 0 3.698.686 5.081 1.826zm5.178-4.891c-1.755-1.522-4.037-2.45-6.537-2.45-5.514 0-10 4.486-10 10s4.486 10 10 10 10-4.486 10-10c0-2.295-.785-4.406-2.09-6.095l2.923-2.76c1.977 2.414 3.167 5.498 3.167 8.855 0 7.72-6.28 14-14 14s-14-6.28-14-14 6.28-14 14-14c3.644 0 6.956 1.411 9.449 3.7zm10.025-10.599.287.86-3.849 3.636v-.933zm3.438 18.149c0 11.028-8.972 20-20 20s-20-8.972-20-20 8.972-20 20-20c4.281 0 8.321 1.333 11.751 3.835 0 0-.811.589-.751 1.165l-.095 3.325c-2.861-2.674-6.689-4.325-10.905-4.325-8.822 0-16 7.178-16 16s7.178 16 16 16 16-7.178 16-16c0-3.783-1.327-7.258-3.53-10h3.53c.578.007.973-.559.973-.559 1.976 3.166 3.027 6.791 3.027 10.559z"/></g></svg>