<svg id="Layer_1" enable-background="new 0 0 100 100" height="512" viewBox="0 0 100 100" width="512" xmlns="http://www.w3.org/2000/svg"><path d="m70.0112305 45.940918c-.5522461 0-1 .4477539-1 1v4.7114258h-4.7114258c-.5522461 0-1 .4477539-1 1s.4477539 1 1 1h4.7114258v4.7109375c0 .5522461.4477539 1 1 1s1-.4477539 1-1v-4.7109375h4.7109375c.5522461 0 1-.4477539 1-1s-.4477539-1-1-1h-4.7109375v-4.7114258c0-.5522461-.4477539-1-1-1z"/><path d="m43.3793945 90c13.921875 0 26.4329834-8.7227173 31.2802124-21.7380981 5.0476685-2.949646 12.996521-8.8616943 14.9575806-17.6686401 1.7216797-7.7314453-2.4746094-13.2314453-7.1020508-15.0703125-4.0582275-1.612915-8.2556152-.5736084-11.3505859 2.6156006-.6955566-1.0463867-1.4403076-2.045166-2.2336426-2.9936523l2.4538574-2.9281006c1.5703125-1.8730469 1.3237305-4.6743164-.5493164-6.2451172l-2.2924805-1.9208984c-1.8735352-1.5698242-4.6757812-1.3232422-6.2441406.5498047l-2.465271 2.9383545c-4.6393433-2.6255493-9.9154053-4.1085815-15.4541626-4.2702637v-3.1929932h3.3305664c2.0307617 0 3.6826172-1.6518555 3.6826172-3.6826172v-2.7104492c0-2.0307618-1.6518554-3.6826173-3.6826172-3.6826173h-8.6616211c-2.0302734 0-3.6821289 1.6518555-3.6821289 3.6826172v2.7104492c0 2.0307617 1.6518555 3.6826172 3.6821289 3.6826172h3.3310547v3.1865234c-5.5936279.1658325-10.8438721 1.7116089-15.4244385 4.3121338l-2.4945068-2.9732666c-1.5703125-1.8735352-4.3701172-2.1196289-6.2451172-.550293l-2.2919922 1.9213867c-.9072266.7607422-1.4643555 1.8291016-1.5683594 3.0083008-.1040039 1.1796875.2578125 2.3291016 1.0185547 3.2358398l2.4640503 2.9406738c-4.8875732 5.807373-7.8400269 13.2944336-7.8400269 21.4611816.0000001 18.4067384 14.9750977 33.3818361 33.381836 33.3818361zm-6.0131836-73.6069336v-2.7104492c0-.9277344.7543946-1.6826172 1.6821289-1.6826172h8.6616211c.9277344 0 1.6826172.7548828 1.6826172 1.6826172v2.7104492c0 .9277344-.7548828 1.6826172-1.6826172 1.6826172h-8.6616211c-.9277343 0-1.6821289-.7548828-1.6821289-1.6826172zm6.0131836 71.6069336c-17.3041992 0-31.3818359-14.0776367-31.3818359-31.3818359 0-17.3037109 14.0776367-31.3813477 31.3818359-31.3813477 9.9768677 0 19.1148682 4.6150513 25.0303345 12.4689331-2.9671631-2.7696533-6.8317261-3.6624756-10.6001587-2.2891846-4.2650146-2.9091797-9.2375488-4.4575806-14.4301758-4.4575806-14.1489258 0-25.659668 11.5107422-25.659668 25.6591797 0 14.1489258 11.5107422 25.659668 25.659668 25.659668 9.4604492 0 18.2260132-5.3209839 22.65271-13.6311646 1.9882202 1.118042 3.402771 1.7215576 3.5928955 1.8010864.1235352.0512695.2543945.0771484.3857422.0771484s.262207-.0258789.3857422-.0776367c.1116943-.0466309.6520386-.27771 1.4762573-.6835327-5.0855713 11.0086671-16.2055054 18.2362672-28.4933472 18.2362672zm7.0253907-37.4067383c1.8285522 8.2174072 8.869751 13.9119263 13.9052124 17.0342407-4.0687867 7.7092896-12.1768799 12.6503296-20.9306031 12.6503296-13.0458984 0-23.659668-10.6137695-23.659668-23.659668s10.6137695-23.6591797 23.659668-23.6591797c4.4011841 0 8.6328125 1.2012939 12.3417969 3.4771118-3.8397217 2.4108277-6.8121948 7.4400025-5.3164062 14.1571656zm31.371582-13.2114258c3.8647461 1.5351562 7.3554688 6.1884766 5.8886719 12.7768555-2.4047852 10.7993164-15.2509766 17.1665039-17.6542969 18.2714844-2.4033203-1.1049805-15.2509766-7.472168-17.6538086-18.2714844-1.4667969-6.5883789 2.0239258-11.2416992 5.8876953-12.7768555.9428711-.3745117 1.9985352-.5986328 3.0981445-.5986328 2.6728516 0 5.6054688 1.3227539 7.809082 5.0205078.3603516.6054688 1.3574219.6054688 1.7177734 0 3.1103517-5.2202148 7.67334-5.7080078 10.9067384-4.421875zm-17.9448242-11.496582c.8618164-1.027832 2.3984375-1.1630859 3.4272461-.3012695l2.2915039 1.9204102c1.0283203.8623047 1.1635742 2.3994141.3017578 3.4277344l-2.2631226 2.7004395c-1.8188477-1.9260254-3.8356323-3.6226196-6.024292-5.0454712zm-46.925293 5.0463867c-.4174805-.4975586-.6157227-1.128418-.559082-1.7753906.0571289-.6474609.362793-1.2338867.8613281-1.6513672l2.2915039-1.9208984c1.0292969-.8613281 2.565918-.7260742 3.4277344.3017578l2.2988892 2.7400513c-2.2072144 1.4362793-4.2333374 3.1254272-6.0397949 5.0274658z"/><path d="m44.3793945 50.6907349v-12.3919068c0-.5522461-.4477539-1-1-1s-1 .4477539-1 1v12.3919067c-2.8426514.4786377-5.0175781 2.9509277-5.0175781 5.9274292 0 3.3183594 2.699707 6.0180664 6.0175781 6.0180664s6.0175781-2.699707 6.0175781-6.0180664c.0000001-2.9765014-2.1749267-5.4487914-5.0175781-5.9274291zm-1 9.9454956c-2.215332 0-4.0175781-1.8027344-4.0175781-4.0180664s1.8022461-4.0175781 4.0175781-4.0175781 4.0175781 1.8022461 4.0175781 4.0175781-1.802246 4.0180664-4.0175781 4.0180664z"/></svg>